<svg xmlns="http://www.w3.org/2000/svg" viewBox="0 0 600 800" font-family="monospace">
  <defs>
    <linearGradient id="g" x1="0" y1="0" x2="0" y2="1">
      <stop offset="0" stop-color="#0a0f14"/>
      <stop offset="1" stop-color="#000000"/>
    </linearGradient>
  </defs>
  <rect width="600" height="800" fill="url(#g)"/>
  <circle cx="450" cy="150" r="90" fill="#0f1620"/>
  <g fill="#cfeccf" opacity="0.25"><circle cx="485" cy="160" r="0.40"/><circle cx="396" cy="118" r="0.98"/><circle cx="134" cy="157" r="0.34"/><circle cx="510" cy="297" r="0.65"/><circle cx="26" cy="304" r="1.54"/><circle cx="111" cy="113" r="0.13"/><circle cx="125" cy="91" r="1.47"/><circle cx="167" cy="123" r="0.31"/><circle cx="347" cy="213" r="0.85"/><circle cx="571" cy="7" r="0.09"/><circle cx="551" cy="44" r="1.54"/><circle cx="562" cy="80" r="1.48"/><circle cx="334" cy="282" r="0.49"/><circle cx="214" cy="236" r="0.11"/><circle cx="383" cy="257" r="0.73"/><circle cx="299" cy="56" r="0.26"/><circle cx="445" cy="141" r="0.04"/><circle cx="448" cy="447" r="0.31"/><circle cx="333" cy="424" r="0.76"/><circle cx="52" cy="67" r="1.40"/><circle cx="450" cy="213" r="0.01"/><circle cx="495" cy="101" r="1.41"/><circle cx="226" cy="360" r="0.79"/><circle cx="398" cy="399" r="1.54"/><circle cx="365" cy="195" r="0.91"/><circle cx="450" cy="163" r="1.16"/><circle cx="5" cy="346" r="0.14"/><circle cx="536" cy="220" r="1.13"/><circle cx="337" cy="287" r="0.16"/><circle cx="285" cy="379" r="0.55"/><circle cx="286" cy="282" r="0.39"/><circle cx="10" cy="54" r="0.53"/><circle cx="224" cy="106" r="1.22"/><circle cx="581" cy="441" r="1.23"/><circle cx="152" cy="126" r="0.22"/><circle cx="456" cy="458" r="0.33"/><circle cx="1" cy="292" r="1.21"/><circle cx="556" cy="58" r="1.02"/><circle cx="37" cy="421" r="1.09"/><circle cx="558" cy="311" r="1.25"/><circle cx="35" cy="295" r="0.80"/><circle cx="593" cy="55" r="1.34"/><circle cx="131" cy="202" r="0.08"/><circle cx="66" cy="346" r="0.35"/><circle cx="412" cy="21" r="1.38"/><circle cx="408" cy="241" r="1.19"/><circle cx="94" cy="421" r="0.56"/><circle cx="414" cy="63" r="0.26"/><circle cx="398" cy="74" r="0.90"/><circle cx="425" cy="205" r="0.22"/><circle cx="467" cy="467" r="1.38"/><circle cx="378" cy="262" r="0.10"/><circle cx="525" cy="267" r="0.91"/><circle cx="465" cy="243" r="1.50"/><circle cx="531" cy="330" r="0.07"/><circle cx="579" cy="456" r="0.27"/><circle cx="523" cy="70" r="1.52"/><circle cx="270" cy="181" r="1.18"/><circle cx="376" cy="343" r="0.33"/><circle cx="276" cy="345" r="0.74"/></g>
  <g fill="#04070a"><rect x="20" y="640" width="40" height="160"/><rect x="84" y="549" width="77" height="251"/><rect x="148" y="458" width="64" height="342"/><rect x="212" y="367" width="51" height="433"/><rect x="276" y="596" width="88" height="204"/><rect x="340" y="505" width="75" height="295"/><rect x="404" y="414" width="62" height="386"/><rect x="468" y="323" width="49" height="477"/><rect x="532" y="552" width="86" height="248"/></g>
  <g opacity="0.06" fill="#ffffff">
    <rect x="0" y="0" width="600" height="8"/><rect x="0" y="20" width="600" height="8"/><rect x="0" y="40" width="600" height="8"/><rect x="0" y="60" width="600" height="8"/><rect x="0" y="80" width="600" height="8"/><rect x="0" y="100" width="600" height="8"/><rect x="0" y="120" width="600" height="8"/><rect x="0" y="140" width="600" height="8"/><rect x="0" y="160" width="600" height="8"/><rect x="0" y="180" width="600" height="8"/><rect x="0" y="200" width="600" height="8"/><rect x="0" y="220" width="600" height="8"/><rect x="0" y="240" width="600" height="8"/><rect x="0" y="260" width="600" height="8"/><rect x="0" y="280" width="600" height="8"/><rect x="0" y="300" width="600" height="8"/><rect x="0" y="320" width="600" height="8"/><rect x="0" y="340" width="600" height="8"/><rect x="0" y="360" width="600" height="8"/><rect x="0" y="380" width="600" height="8"/><rect x="0" y="400" width="600" height="8"/><rect x="0" y="420" width="600" height="8"/><rect x="0" y="440" width="600" height="8"/><rect x="0" y="460" width="600" height="8"/><rect x="0" y="480" width="600" height="8"/><rect x="0" y="500" width="600" height="8"/><rect x="0" y="520" width="600" height="8"/><rect x="0" y="540" width="600" height="8"/><rect x="0" y="560" width="600" height="8"/><rect x="0" y="580" width="600" height="8"/><rect x="0" y="600" width="600" height="8"/><rect x="0" y="620" width="600" height="8"/><rect x="0" y="640" width="600" height="8"/><rect x="0" y="660" width="600" height="8"/><rect x="0" y="680" width="600" height="8"/><rect x="0" y="700" width="600" height="8"/><rect x="0" y="720" width="600" height="8"/><rect x="0" y="740" width="600" height="8"/><rect x="0" y="760" width="600" height="8"/><rect x="0" y="780" width="600" height="8"/>
  </g>
  <text x="34" y="130" fill="#1b242b" font-size="140" font-weight="bold">03</text>
  <rect x="0" y="690" width="600" height="110" fill="#000000" opacity="0.78"/>
  <rect x="0" y="690" width="600" height="3" fill="#7fb2ff" opacity="0.6"/>
  <text x="30" y="745" fill="#7fb2ff" font-size="27" font-weight="bold">El fantasma deja rastro.</text>
</svg>