<svg xmlns="http://www.w3.org/2000/svg" viewBox="0 0 600 800" font-family="monospace">
  <defs>
    <linearGradient id="g" x1="0" y1="0" x2="0" y2="1">
      <stop offset="0" stop-color="#0a0f14"/>
      <stop offset="1" stop-color="#000000"/>
    </linearGradient>
  </defs>
  <rect width="600" height="800" fill="url(#g)"/>
  <circle cx="450" cy="150" r="90" fill="#11181d"/>
  <g fill="#cfeccf" opacity="0.25"><circle cx="408" cy="100" r="0.01"/><circle cx="326" cy="255" r="0.24"/><circle cx="465" cy="183" r="1.45"/><circle cx="558" cy="407" r="0.62"/><circle cx="130" cy="82" r="1.05"/><circle cx="556" cy="468" r="1.58"/><circle cx="342" cy="101" r="1.45"/><circle cx="379" cy="113" r="0.01"/><circle cx="248" cy="460" r="0.92"/><circle cx="341" cy="304" r="0.30"/><circle cx="273" cy="155" r="0.79"/><circle cx="173" cy="179" r="0.27"/><circle cx="282" cy="474" r="0.78"/><circle cx="596" cy="188" r="0.63"/><circle cx="252" cy="173" r="1.17"/><circle cx="427" cy="55" r="1.03"/><circle cx="419" cy="414" r="1.57"/><circle cx="417" cy="289" r="0.51"/><circle cx="307" cy="398" r="0.52"/><circle cx="491" cy="478" r="1.49"/><circle cx="335" cy="274" r="1.50"/><circle cx="110" cy="275" r="0.93"/><circle cx="546" cy="334" r="1.03"/><circle cx="404" cy="271" r="0.58"/><circle cx="81" cy="91" r="0.99"/><circle cx="155" cy="355" r="1.49"/><circle cx="466" cy="392" r="0.59"/><circle cx="122" cy="123" r="0.38"/><circle cx="24" cy="227" r="0.42"/><circle cx="445" cy="57" r="1.08"/><circle cx="220" cy="156" r="0.77"/><circle cx="454" cy="298" r="1.46"/><circle cx="82" cy="211" r="0.72"/><circle cx="412" cy="487" r="0.63"/><circle cx="7" cy="332" r="0.42"/><circle cx="577" cy="467" r="0.16"/><circle cx="490" cy="151" r="1.14"/><circle cx="541" cy="129" r="1.28"/><circle cx="386" cy="333" r="1.10"/><circle cx="441" cy="476" r="0.66"/><circle cx="258" cy="396" r="0.48"/><circle cx="336" cy="203" r="0.18"/><circle cx="482" cy="246" r="1.40"/><circle cx="31" cy="416" r="0.62"/><circle cx="441" cy="63" r="0.25"/><circle cx="222" cy="72" r="1.45"/><circle cx="558" cy="456" r="0.69"/><circle cx="387" cy="16" r="0.09"/><circle cx="557" cy="519" r="1.55"/><circle cx="338" cy="19" r="0.99"/><circle cx="209" cy="48" r="1.39"/><circle cx="192" cy="109" r="0.35"/><circle cx="335" cy="125" r="0.16"/><circle cx="76" cy="384" r="1.18"/><circle cx="185" cy="214" r="0.54"/><circle cx="407" cy="192" r="0.00"/><circle cx="534" cy="204" r="1.53"/><circle cx="177" cy="213" r="0.39"/><circle cx="430" cy="95" r="1.41"/><circle cx="576" cy="320" r="0.99"/></g>
  <g fill="#04070a"><rect x="20" y="640" width="40" height="160"/><rect x="84" y="549" width="77" height="251"/><rect x="148" y="458" width="64" height="342"/><rect x="212" y="367" width="51" height="433"/><rect x="276" y="596" width="88" height="204"/><rect x="340" y="505" width="75" height="295"/><rect x="404" y="414" width="62" height="386"/><rect x="468" y="323" width="49" height="477"/><rect x="532" y="552" width="86" height="248"/></g>
  <g opacity="0.06" fill="#ffffff">
    <rect x="0" y="0" width="600" height="8"/><rect x="0" y="20" width="600" height="8"/><rect x="0" y="40" width="600" height="8"/><rect x="0" y="60" width="600" height="8"/><rect x="0" y="80" width="600" height="8"/><rect x="0" y="100" width="600" height="8"/><rect x="0" y="120" width="600" height="8"/><rect x="0" y="140" width="600" height="8"/><rect x="0" y="160" width="600" height="8"/><rect x="0" y="180" width="600" height="8"/><rect x="0" y="200" width="600" height="8"/><rect x="0" y="220" width="600" height="8"/><rect x="0" y="240" width="600" height="8"/><rect x="0" y="260" width="600" height="8"/><rect x="0" y="280" width="600" height="8"/><rect x="0" y="300" width="600" height="8"/><rect x="0" y="320" width="600" height="8"/><rect x="0" y="340" width="600" height="8"/><rect x="0" y="360" width="600" height="8"/><rect x="0" y="380" width="600" height="8"/><rect x="0" y="400" width="600" height="8"/><rect x="0" y="420" width="600" height="8"/><rect x="0" y="440" width="600" height="8"/><rect x="0" y="460" width="600" height="8"/><rect x="0" y="480" width="600" height="8"/><rect x="0" y="500" width="600" height="8"/><rect x="0" y="520" width="600" height="8"/><rect x="0" y="540" width="600" height="8"/><rect x="0" y="560" width="600" height="8"/><rect x="0" y="580" width="600" height="8"/><rect x="0" y="600" width="600" height="8"/><rect x="0" y="620" width="600" height="8"/><rect x="0" y="640" width="600" height="8"/><rect x="0" y="660" width="600" height="8"/><rect x="0" y="680" width="600" height="8"/><rect x="0" y="700" width="600" height="8"/><rect x="0" y="720" width="600" height="8"/><rect x="0" y="740" width="600" height="8"/><rect x="0" y="760" width="600" height="8"/><rect x="0" y="780" width="600" height="8"/>
  </g>
  <text x="34" y="130" fill="#1b242b" font-size="140" font-weight="bold">◢◤</text>
  <rect x="0" y="690" width="600" height="110" fill="#000000" opacity="0.78"/>
  <rect x="0" y="690" width="600" height="3" fill="#9ef09e" opacity="0.6"/>
  <text x="30" y="745" fill="#9ef09e" font-size="27" font-weight="bold">NEO-TOKYO CASE</text>
</svg>